<?xml version="1.0" encoding="UTF-8" standalone="no"?>
<!DOCTYPE svg PUBLIC "-//W3C//DTD SVG 1.1//EN"
 "http://www.w3.org/Graphics/SVG/1.1/DTD/svg11.dtd">
<!-- Generated by graphviz version 2.43.0 (0)
 -->
<!-- Title: sourcetree Pages: 1 -->
<svg width="1165pt" height="116pt"
 viewBox="0.00 0.00 1164.50 116.00" xmlns="http://www.w3.org/2000/svg" xmlns:xlink="http://www.w3.org/1999/xlink">
<g id="graph0" class="graph" transform="scale(1 1) rotate(0) translate(4 112)">
<title>sourcetree</title>
<polygon fill="white" stroke="transparent" points="-4,4 -4,-112 1160.5,-112 1160.5,4 -4,4"/>
<!-- mulle&#45;scion -->
<g id="node1" class="node">
<title>mulle&#45;scion</title>
<polygon fill="yellow" stroke="black" points="697.5,-108 599.5,-108 599.5,-72 697.5,-72 697.5,-108"/>
<text text-anchor="middle" x="648.5" y="-86.3" font-family="Times,serif" font-size="14.00">mulle&#45;scion</text>
</g>
<!-- Foundation -->
<g id="node2" class="node">
<title>Foundation</title>
<g id="a_node2"><a xlink:href="https://github.com/MulleFoundation/Foundation" xlink:title="Foundation">
<polygon fill="lightgrey" stroke="black" points="97,-36 0,-36 0,0 97,0 97,-36"/>
<text text-anchor="middle" x="48.5" y="-14.3" font-family="Times,serif" font-size="14.00">Foundation</text>
</a>
</g>
</g>
<!-- mulle&#45;scion&#45;&gt;Foundation -->
<g id="edge1" class="edge">
<title>mulle&#45;scion&#45;&gt;Foundation</title>
<path fill="none" stroke="black" d="M599.47,-87.29C505.54,-83.34 293.73,-71.22 107.07,-35.87"/>
<polygon fill="black" stroke="black" points="107.55,-32.4 97.07,-33.95 106.23,-39.28 107.55,-32.4"/>
</g>
<!-- Foundation&#45;startup -->
<g id="node3" class="node">
<title>Foundation&#45;startup</title>
<g id="a_node3"><a xlink:href="https://github.com/MulleFoundation/Foundation-startup" xlink:title="Foundation&#45;startup">
<polygon fill="lightgrey" stroke="black" points="269.5,-36 115.5,-36 115.5,0 269.5,0 269.5,-36"/>
<text text-anchor="middle" x="192.5" y="-14.3" font-family="Times,serif" font-size="14.00">Foundation&#45;startup</text>
</a>
</g>
</g>
<!-- mulle&#45;scion&#45;&gt;Foundation&#45;startup -->
<g id="edge2" class="edge">
<title>mulle&#45;scion&#45;&gt;Foundation&#45;startup</title>
<path fill="none" stroke="black" d="M599.29,-82.79C530.22,-73.9 400.36,-56.49 279.95,-36.2"/>
<polygon fill="black" stroke="black" points="280.26,-32.71 269.82,-34.48 279.09,-39.61 280.26,-32.71"/>
</g>
<!-- MulleBashStringExpansion -->
<g id="node4" class="node">
<title>MulleBashStringExpansion</title>
<g id="a_node4"><a xlink:href="https://github.com/MulleWeb/MulleBashStringExpansion" xlink:title="MulleBashStringExpansion">
<polygon fill="lightgrey" stroke="black" points="499.5,-36 287.5,-36 287.5,0 499.5,0 499.5,-36"/>
<text text-anchor="middle" x="393.5" y="-14.3" font-family="Times,serif" font-size="14.00">MulleBashStringExpansion</text>
</a>
</g>
</g>
<!-- mulle&#45;scion&#45;&gt;MulleBashStringExpansion -->
<g id="edge3" class="edge">
<title>mulle&#45;scion&#45;&gt;MulleBashStringExpansion</title>
<path fill="none" stroke="black" d="M599.33,-75.5C561.34,-65.07 508.18,-50.48 465.41,-38.74"/>
<polygon fill="black" stroke="black" points="466.18,-35.32 455.62,-36.05 464.33,-42.07 466.18,-35.32"/>
</g>
<!-- MulleHoedown -->
<g id="node5" class="node">
<title>MulleHoedown</title>
<g id="a_node5"><a xlink:href="https://github.com/MulleWeb/MulleHoedown" xlink:title="MulleHoedown">
<polygon fill="lightgrey" stroke="black" points="641.5,-36 517.5,-36 517.5,0 641.5,0 641.5,-36"/>
<text text-anchor="middle" x="579.5" y="-14.3" font-family="Times,serif" font-size="14.00">MulleHoedown</text>
</a>
</g>
</g>
<!-- mulle&#45;scion&#45;&gt;MulleHoedown -->
<g id="edge4" class="edge">
<title>mulle&#45;scion&#45;&gt;MulleHoedown</title>
<path fill="none" stroke="black" d="M631.44,-71.7C623,-63.14 612.68,-52.66 603.46,-43.3"/>
<polygon fill="black" stroke="black" points="605.87,-40.77 596.36,-36.1 600.89,-45.68 605.87,-40.77"/>
</g>
<!-- mulle&#45;musl&#45;cc -->
<g id="node6" class="node">
<title>mulle&#45;musl&#45;cc</title>
<g id="a_node6"><a xlink:href="https://github.com/mulle-cc/mulle-musl-cc" xlink:title="mulle&#45;musl&#45;cc">
<polygon fill="lightgrey" stroke="black" points="775,-36 660,-36 660,0 775,0 775,-36"/>
<text text-anchor="middle" x="717.5" y="-14.3" font-family="Times,serif" font-size="14.00">mulle&#45;musl&#45;cc</text>
</a>
</g>
</g>
<!-- mulle&#45;scion&#45;&gt;mulle&#45;musl&#45;cc -->
<g id="edge6" class="edge">
<title>mulle&#45;scion&#45;&gt;mulle&#45;musl&#45;cc</title>
<path fill="none" stroke="black" d="M665.56,-71.7C674,-63.14 684.32,-52.66 693.54,-43.3"/>
<polygon fill="black" stroke="black" points="696.11,-45.68 700.64,-36.1 691.13,-40.77 696.11,-45.68"/>
</g>
<!-- mulle&#45;musl -->
<g id="node7" class="node">
<title>mulle&#45;musl</title>
<g id="a_node7"><a xlink:href="https://github.com/mulle-cc/mulle-musl" xlink:title="mulle&#45;musl">
<polygon fill="lightgrey" stroke="black" points="888,-36 793,-36 793,0 888,0 888,-36"/>
<text text-anchor="middle" x="840.5" y="-14.3" font-family="Times,serif" font-size="14.00">mulle&#45;musl</text>
</a>
</g>
</g>
<!-- mulle&#45;scion&#45;&gt;mulle&#45;musl -->
<g id="edge5" class="edge">
<title>mulle&#45;scion&#45;&gt;mulle&#45;musl</title>
<path fill="none" stroke="black" d="M695.47,-71.88C722.18,-62.14 755.82,-49.87 783.97,-39.61"/>
<polygon fill="black" stroke="black" points="785.49,-42.78 793.68,-36.07 783.09,-36.21 785.49,-42.78"/>
</g>
<!-- MulleScion -->
<g id="node8" class="node">
<title>MulleScion</title>
<g id="a_node8"><a xlink:href="https://github.com/MulleWeb/MulleScion" xlink:title="MulleScion">
<polygon fill="lightgrey" stroke="black" points="1002.5,-36 906.5,-36 906.5,0 1002.5,0 1002.5,-36"/>
<text text-anchor="middle" x="954.5" y="-14.3" font-family="Times,serif" font-size="14.00">MulleScion</text>
</a>
</g>
</g>
<!-- mulle&#45;scion&#45;&gt;MulleScion -->
<g id="edge7" class="edge">
<title>mulle&#45;scion&#45;&gt;MulleScion</title>
<path fill="none" stroke="black" d="M697.91,-79.7C746.18,-70.34 821.91,-54.93 896.36,-36.19"/>
<polygon fill="black" stroke="black" points="897.54,-39.5 906.37,-33.65 895.82,-32.72 897.54,-39.5"/>
</g>
<!-- MulleWebServer -->
<g id="node9" class="node">
<title>MulleWebServer</title>
<g id="a_node9"><a xlink:href="https://github.com/MulleWeb/MulleWebServer" xlink:title="MulleWebServer">
<polygon fill="lightgrey" stroke="black" points="1156.5,-36 1020.5,-36 1020.5,0 1156.5,0 1156.5,-36"/>
<text text-anchor="middle" x="1088.5" y="-14.3" font-family="Times,serif" font-size="14.00">MulleWebServer</text>
</a>
</g>
</g>
<!-- mulle&#45;scion&#45;&gt;MulleWebServer -->
<g id="edge8" class="edge">
<title>mulle&#45;scion&#45;&gt;MulleWebServer</title>
<path fill="none" stroke="black" d="M697.71,-82.96C765.77,-74.36 892.65,-57.41 1010.23,-36.17"/>
<polygon fill="black" stroke="black" points="1010.91,-39.6 1020.12,-34.37 1009.65,-32.71 1010.91,-39.6"/>
</g>
</g>
</svg>
