<?xml version="1.0" encoding="UTF-8" standalone="no"?>
<!DOCTYPE svg PUBLIC "-//W3C//DTD SVG 1.1//EN"
 "http://www.w3.org/Graphics/SVG/1.1/DTD/svg11.dtd">
<!-- Generated by graphviz version 2.43.0 (0)
 -->
<!-- Title: sourcetree Pages: 1 -->
<svg width="688pt" height="116pt"
 viewBox="0.00 0.00 687.50 116.00" xmlns="http://www.w3.org/2000/svg" xmlns:xlink="http://www.w3.org/1999/xlink">
<g id="graph0" class="graph" transform="scale(1 1) rotate(0) translate(4 112)">
<title>sourcetree</title>
<polygon fill="white" stroke="transparent" points="-4,4 -4,-112 683.5,-112 683.5,4 -4,4"/>
<!-- mulle&#45;scion -->
<g id="node1" class="node">
<title>mulle&#45;scion</title>
<polygon fill="yellow" stroke="black" points="398.5,-108 300.5,-108 300.5,-72 398.5,-72 398.5,-108"/>
<text text-anchor="middle" x="349.5" y="-86.3" font-family="Times,serif" font-size="14.00">mulle&#45;scion</text>
</g>
<!-- Foundation -->
<g id="node2" class="node">
<title>Foundation</title>
<g id="a_node2"><a xlink:href="https://github.com/MulleFoundation/Foundation" xlink:title="Foundation">
<polygon fill="lightgrey" stroke="black" points="97,-36 0,-36 0,0 97,0 97,-36"/>
<text text-anchor="middle" x="48.5" y="-14.3" font-family="Times,serif" font-size="14.00">Foundation</text>
</a>
</g>
</g>
<!-- mulle&#45;scion&#45;&gt;Foundation -->
<g id="edge1" class="edge">
<title>mulle&#45;scion&#45;&gt;Foundation</title>
<path fill="none" stroke="black" d="M300.39,-79.35C253.25,-69.84 179.87,-54.43 106.98,-36.03"/>
<polygon fill="black" stroke="black" points="107.72,-32.61 97.17,-33.53 105.99,-39.39 107.72,-32.61"/>
</g>
<!-- Foundation&#45;startup -->
<g id="node3" class="node">
<title>Foundation&#45;startup</title>
<g id="a_node3"><a xlink:href="https://github.com/MulleFoundation/Foundation-startup" xlink:title="Foundation&#45;startup">
<polygon fill="lightgrey" stroke="black" points="269.5,-36 115.5,-36 115.5,0 269.5,0 269.5,-36"/>
<text text-anchor="middle" x="192.5" y="-14.3" font-family="Times,serif" font-size="14.00">Foundation&#45;startup</text>
</a>
</g>
</g>
<!-- mulle&#45;scion&#45;&gt;Foundation&#45;startup -->
<g id="edge2" class="edge">
<title>mulle&#45;scion&#45;&gt;Foundation&#45;startup</title>
<path fill="none" stroke="black" d="M311.09,-71.88C289.63,-62.31 262.7,-50.3 239.93,-40.15"/>
<polygon fill="black" stroke="black" points="241.34,-36.94 230.78,-36.07 238.49,-43.34 241.34,-36.94"/>
</g>
<!-- MulleHoedown -->
<g id="node4" class="node">
<title>MulleHoedown</title>
<g id="a_node4"><a xlink:href="https://github.com/MulleWeb/MulleHoedown" xlink:title="MulleHoedown">
<polygon fill="lightgrey" stroke="black" points="411.5,-36 287.5,-36 287.5,0 411.5,0 411.5,-36"/>
<text text-anchor="middle" x="349.5" y="-14.3" font-family="Times,serif" font-size="14.00">MulleHoedown</text>
</a>
</g>
</g>
<!-- mulle&#45;scion&#45;&gt;MulleHoedown -->
<g id="edge3" class="edge">
<title>mulle&#45;scion&#45;&gt;MulleHoedown</title>
<path fill="none" stroke="black" d="M349.5,-71.7C349.5,-63.98 349.5,-54.71 349.5,-46.11"/>
<polygon fill="black" stroke="black" points="353,-46.1 349.5,-36.1 346,-46.1 353,-46.1"/>
</g>
<!-- MulleScion -->
<g id="node5" class="node">
<title>MulleScion</title>
<g id="a_node5"><a xlink:href="https://github.com/MulleWeb/MulleScion" xlink:title="MulleScion">
<polygon fill="lightgrey" stroke="black" points="525.5,-36 429.5,-36 429.5,0 525.5,0 525.5,-36"/>
<text text-anchor="middle" x="477.5" y="-14.3" font-family="Times,serif" font-size="14.00">MulleScion</text>
</a>
</g>
</g>
<!-- mulle&#45;scion&#45;&gt;MulleScion -->
<g id="edge4" class="edge">
<title>mulle&#45;scion&#45;&gt;MulleScion</title>
<path fill="none" stroke="black" d="M380.81,-71.88C397.7,-62.64 418.75,-51.13 436.88,-41.21"/>
<polygon fill="black" stroke="black" points="438.97,-44.06 446.07,-36.19 435.61,-37.92 438.97,-44.06"/>
</g>
<!-- MulleWebServer -->
<g id="node6" class="node">
<title>MulleWebServer</title>
<g id="a_node6"><a xlink:href="https://github.com/MulleWeb/MulleWebServer" xlink:title="MulleWebServer">
<polygon fill="lightgrey" stroke="black" points="679.5,-36 543.5,-36 543.5,0 679.5,0 679.5,-36"/>
<text text-anchor="middle" x="611.5" y="-14.3" font-family="Times,serif" font-size="14.00">MulleWebServer</text>
</a>
</g>
</g>
<!-- mulle&#45;scion&#45;&gt;MulleWebServer -->
<g id="edge5" class="edge">
<title>mulle&#45;scion&#45;&gt;MulleWebServer</title>
<path fill="none" stroke="black" d="M398.78,-75.83C437.92,-65.38 493.26,-50.59 537.68,-38.72"/>
<polygon fill="black" stroke="black" points="538.81,-42.04 547.56,-36.08 537,-35.28 538.81,-42.04"/>
</g>
</g>
</svg>
