<?xml version="1.0" encoding="UTF-8" standalone="no"?>
<!DOCTYPE svg PUBLIC "-//W3C//DTD SVG 1.1//EN"
 "http://www.w3.org/Graphics/SVG/1.1/DTD/svg11.dtd">
<!-- Generated by graphviz version 2.43.0 (0)
 -->
<!-- Title: sourcetree Pages: 1 -->
<svg width="918pt" height="116pt"
 viewBox="0.00 0.00 917.50 116.00" xmlns="http://www.w3.org/2000/svg" xmlns:xlink="http://www.w3.org/1999/xlink">
<g id="graph0" class="graph" transform="scale(1 1) rotate(0) translate(4 112)">
<title>sourcetree</title>
<polygon fill="white" stroke="transparent" points="-4,4 -4,-112 913.5,-112 913.5,4 -4,4"/>
<!-- mulle&#45;scion -->
<g id="node1" class="node">
<title>mulle&#45;scion</title>
<polygon fill="yellow" stroke="black" points="535.5,-108 437.5,-108 437.5,-72 535.5,-72 535.5,-108"/>
<text text-anchor="middle" x="486.5" y="-86.3" font-family="Times,serif" font-size="14.00">mulle&#45;scion</text>
</g>
<!-- Foundation -->
<g id="node2" class="node">
<title>Foundation</title>
<g id="a_node2"><a xlink:href="https://github.com/MulleFoundation/Foundation" xlink:title="Foundation">
<polygon fill="lightgrey" stroke="black" points="97,-36 0,-36 0,0 97,0 97,-36"/>
<text text-anchor="middle" x="48.5" y="-14.3" font-family="Times,serif" font-size="14.00">Foundation</text>
</a>
</g>
</g>
<!-- mulle&#45;scion&#45;&gt;Foundation -->
<g id="edge1" class="edge">
<title>mulle&#45;scion&#45;&gt;Foundation</title>
<path fill="none" stroke="black" d="M437.21,-84.46C366.28,-77.41 231.24,-62.08 107.16,-35.95"/>
<polygon fill="black" stroke="black" points="107.61,-32.47 97.1,-33.81 106.15,-39.32 107.61,-32.47"/>
</g>
<!-- Foundation&#45;startup -->
<g id="node3" class="node">
<title>Foundation&#45;startup</title>
<g id="a_node3"><a xlink:href="https://github.com/MulleFoundation/Foundation-startup" xlink:title="Foundation&#45;startup">
<polygon fill="lightgrey" stroke="black" points="269.5,-36 115.5,-36 115.5,0 269.5,0 269.5,-36"/>
<text text-anchor="middle" x="192.5" y="-14.3" font-family="Times,serif" font-size="14.00">Foundation&#45;startup</text>
</a>
</g>
</g>
<!-- mulle&#45;scion&#45;&gt;Foundation&#45;startup -->
<g id="edge2" class="edge">
<title>mulle&#45;scion&#45;&gt;Foundation&#45;startup</title>
<path fill="none" stroke="black" d="M437.29,-77.28C392.76,-66.68 326.31,-50.86 273.87,-38.37"/>
<polygon fill="black" stroke="black" points="274.46,-34.92 263.92,-36 272.84,-41.73 274.46,-34.92"/>
</g>
<!-- MulleBashStringExpansion -->
<g id="node4" class="node">
<title>MulleBashStringExpansion</title>
<g id="a_node4"><a xlink:href="https://github.com/MulleWeb/MulleBashStringExpansion" xlink:title="MulleBashStringExpansion">
<polygon fill="lightgrey" stroke="black" points="499.5,-36 287.5,-36 287.5,0 499.5,0 499.5,-36"/>
<text text-anchor="middle" x="393.5" y="-14.3" font-family="Times,serif" font-size="14.00">MulleBashStringExpansion</text>
</a>
</g>
</g>
<!-- mulle&#45;scion&#45;&gt;MulleBashStringExpansion -->
<g id="edge3" class="edge">
<title>mulle&#45;scion&#45;&gt;MulleBashStringExpansion</title>
<path fill="none" stroke="black" d="M463.51,-71.7C451.69,-62.8 437.11,-51.82 424.32,-42.2"/>
<polygon fill="black" stroke="black" points="426.32,-39.32 416.22,-36.1 422.11,-44.91 426.32,-39.32"/>
</g>
<!-- MulleHoedown -->
<g id="node5" class="node">
<title>MulleHoedown</title>
<g id="a_node5"><a xlink:href="https://github.com/MulleWeb/MulleHoedown" xlink:title="MulleHoedown">
<polygon fill="lightgrey" stroke="black" points="641.5,-36 517.5,-36 517.5,0 641.5,0 641.5,-36"/>
<text text-anchor="middle" x="579.5" y="-14.3" font-family="Times,serif" font-size="14.00">MulleHoedown</text>
</a>
</g>
</g>
<!-- mulle&#45;scion&#45;&gt;MulleHoedown -->
<g id="edge4" class="edge">
<title>mulle&#45;scion&#45;&gt;MulleHoedown</title>
<path fill="none" stroke="black" d="M509.49,-71.7C521.31,-62.8 535.89,-51.82 548.68,-42.2"/>
<polygon fill="black" stroke="black" points="550.89,-44.91 556.78,-36.1 546.68,-39.32 550.89,-44.91"/>
</g>
<!-- MulleScion -->
<g id="node6" class="node">
<title>MulleScion</title>
<g id="a_node6"><a xlink:href="https://github.com/MulleWeb/MulleScion" xlink:title="MulleScion">
<polygon fill="lightgrey" stroke="black" points="755.5,-36 659.5,-36 659.5,0 755.5,0 755.5,-36"/>
<text text-anchor="middle" x="707.5" y="-14.3" font-family="Times,serif" font-size="14.00">MulleScion</text>
</a>
</g>
</g>
<!-- mulle&#45;scion&#45;&gt;MulleScion -->
<g id="edge5" class="edge">
<title>mulle&#45;scion&#45;&gt;MulleScion</title>
<path fill="none" stroke="black" d="M535.55,-73.46C569.26,-62.79 614.15,-48.57 649.62,-37.33"/>
<polygon fill="black" stroke="black" points="650.87,-40.61 659.35,-34.25 648.76,-33.93 650.87,-40.61"/>
</g>
<!-- MulleWebServer -->
<g id="node7" class="node">
<title>MulleWebServer</title>
<g id="a_node7"><a xlink:href="https://github.com/MulleWeb/MulleWebServer" xlink:title="MulleWebServer">
<polygon fill="lightgrey" stroke="black" points="909.5,-36 773.5,-36 773.5,0 909.5,0 909.5,-36"/>
<text text-anchor="middle" x="841.5" y="-14.3" font-family="Times,serif" font-size="14.00">MulleWebServer</text>
</a>
</g>
</g>
<!-- mulle&#45;scion&#45;&gt;MulleWebServer -->
<g id="edge6" class="edge">
<title>mulle&#45;scion&#45;&gt;MulleWebServer</title>
<path fill="none" stroke="black" d="M535.8,-80.05C589.37,-70.22 677.75,-53.71 763.22,-36.24"/>
<polygon fill="black" stroke="black" points="764,-39.65 773.09,-34.21 762.59,-32.79 764,-39.65"/>
</g>
</g>
</svg>
