<?xml version="1.0" encoding="UTF-8" standalone="no"?>
<!DOCTYPE svg PUBLIC "-//W3C//DTD SVG 1.1//EN"
 "http://www.w3.org/Graphics/SVG/1.1/DTD/svg11.dtd">
<!-- Generated by graphviz version 2.43.0 (0)
 -->
<!-- Title: sourcetree Pages: 1 -->
<svg width="1532pt" height="116pt"
 viewBox="0.00 0.00 1531.50 116.00" xmlns="http://www.w3.org/2000/svg" xmlns:xlink="http://www.w3.org/1999/xlink">
<g id="graph0" class="graph" transform="scale(1 1) rotate(0) translate(4 112)">
<title>sourcetree</title>
<polygon fill="white" stroke="transparent" points="-4,4 -4,-112 1527.5,-112 1527.5,4 -4,4"/>
<!-- mulle&#45;scion -->
<g id="node1" class="node">
<title>mulle&#45;scion</title>
<polygon fill="yellow" stroke="black" points="916.5,-108 818.5,-108 818.5,-72 916.5,-72 916.5,-108"/>
<text text-anchor="middle" x="867.5" y="-86.3" font-family="Times,serif" font-size="14.00">mulle&#45;scion</text>
</g>
<!-- Foundation -->
<g id="node2" class="node">
<title>Foundation</title>
<g id="a_node2"><a xlink:href="https://github.com/MulleFoundation/Foundation" xlink:title="Foundation">
<polygon fill="lightgrey" stroke="black" points="97,-36 0,-36 0,0 97,0 97,-36"/>
<text text-anchor="middle" x="48.5" y="-14.3" font-family="Times,serif" font-size="14.00">Foundation</text>
</a>
</g>
</g>
<!-- mulle&#45;scion&#45;&gt;Foundation -->
<g id="edge1" class="edge">
<title>mulle&#45;scion&#45;&gt;Foundation</title>
<path fill="none" stroke="black" d="M818.08,-89.23C697.67,-88.99 379.68,-83.67 107.14,-35.85"/>
<polygon fill="black" stroke="black" points="107.51,-32.36 97.05,-34.06 106.29,-39.25 107.51,-32.36"/>
</g>
<!-- Foundation&#45;startup -->
<g id="node3" class="node">
<title>Foundation&#45;startup</title>
<g id="a_node3"><a xlink:href="https://github.com/MulleFoundation/Foundation-startup" xlink:title="Foundation&#45;startup">
<polygon fill="lightgrey" stroke="black" points="269.5,-36 115.5,-36 115.5,0 269.5,0 269.5,-36"/>
<text text-anchor="middle" x="192.5" y="-14.3" font-family="Times,serif" font-size="14.00">Foundation&#45;startup</text>
</a>
</g>
</g>
<!-- mulle&#45;scion&#45;&gt;Foundation&#45;startup -->
<g id="edge2" class="edge">
<title>mulle&#45;scion&#45;&gt;Foundation&#45;startup</title>
<path fill="none" stroke="black" d="M818.43,-86.34C718.77,-80.55 485.38,-65.08 279.86,-36.11"/>
<polygon fill="black" stroke="black" points="280.18,-32.62 269.79,-34.68 279.2,-39.55 280.18,-32.62"/>
</g>
<!-- MulleBashStringExpansion -->
<g id="node4" class="node">
<title>MulleBashStringExpansion</title>
<g id="a_node4"><a xlink:href="https://github.com/MulleWeb/MulleBashStringExpansion" xlink:title="MulleBashStringExpansion">
<polygon fill="lightgrey" stroke="black" points="499.5,-36 287.5,-36 287.5,0 499.5,0 499.5,-36"/>
<text text-anchor="middle" x="393.5" y="-14.3" font-family="Times,serif" font-size="14.00">MulleBashStringExpansion</text>
</a>
</g>
</g>
<!-- mulle&#45;scion&#45;&gt;MulleBashStringExpansion -->
<g id="edge3" class="edge">
<title>mulle&#45;scion&#45;&gt;MulleBashStringExpansion</title>
<path fill="none" stroke="black" d="M818.43,-81.76C751.26,-71.85 626.6,-53.45 509.89,-36.21"/>
<polygon fill="black" stroke="black" points="510.11,-32.7 499.71,-34.7 509.09,-39.62 510.11,-32.7"/>
</g>
<!-- mulle&#45;cosmopolitan&#45;cc -->
<g id="node5" class="node">
<title>mulle&#45;cosmopolitan&#45;cc</title>
<g id="a_node5"><a xlink:href="https://github.com/mulle-cc/mulle-cosmopolitan-cc" xlink:title="mulle&#45;cosmopolitan&#45;cc">
<polygon fill="lightgrey" stroke="black" points="693,-36 518,-36 518,0 693,0 693,-36"/>
<text text-anchor="middle" x="605.5" y="-14.3" font-family="Times,serif" font-size="14.00">mulle&#45;cosmopolitan&#45;cc</text>
</a>
</g>
</g>
<!-- mulle&#45;scion&#45;&gt;mulle&#45;cosmopolitan&#45;cc -->
<g id="edge5" class="edge">
<title>mulle&#45;scion&#45;&gt;mulle&#45;cosmopolitan&#45;cc</title>
<path fill="none" stroke="black" d="M818.22,-75.83C779.08,-65.38 723.74,-50.59 679.32,-38.72"/>
<polygon fill="black" stroke="black" points="680,-35.28 669.44,-36.08 678.19,-42.04 680,-35.28"/>
</g>
<!-- mulle&#45;cosmopolitan -->
<g id="node6" class="node">
<title>mulle&#45;cosmopolitan</title>
<g id="a_node6"><a xlink:href="https://github.com/mulle-cc/mulle-cosmopolitan" xlink:title="mulle&#45;cosmopolitan">
<polygon fill="lightgrey" stroke="black" points="866,-36 711,-36 711,0 866,0 866,-36"/>
<text text-anchor="middle" x="788.5" y="-14.3" font-family="Times,serif" font-size="14.00">mulle&#45;cosmopolitan</text>
</a>
</g>
</g>
<!-- mulle&#45;scion&#45;&gt;mulle&#45;cosmopolitan -->
<g id="edge4" class="edge">
<title>mulle&#45;scion&#45;&gt;mulle&#45;cosmopolitan</title>
<path fill="none" stroke="black" d="M847.97,-71.7C838.12,-62.97 826.01,-52.24 815.3,-42.75"/>
<polygon fill="black" stroke="black" points="817.61,-40.12 807.8,-36.1 812.97,-45.36 817.61,-40.12"/>
</g>
<!-- MulleHoedown -->
<g id="node7" class="node">
<title>MulleHoedown</title>
<g id="a_node7"><a xlink:href="https://github.com/MulleWeb/MulleHoedown" xlink:title="MulleHoedown">
<polygon fill="lightgrey" stroke="black" points="1008.5,-36 884.5,-36 884.5,0 1008.5,0 1008.5,-36"/>
<text text-anchor="middle" x="946.5" y="-14.3" font-family="Times,serif" font-size="14.00">MulleHoedown</text>
</a>
</g>
</g>
<!-- mulle&#45;scion&#45;&gt;MulleHoedown -->
<g id="edge6" class="edge">
<title>mulle&#45;scion&#45;&gt;MulleHoedown</title>
<path fill="none" stroke="black" d="M887.03,-71.7C896.88,-62.97 908.99,-52.24 919.7,-42.75"/>
<polygon fill="black" stroke="black" points="922.03,-45.36 927.2,-36.1 917.39,-40.12 922.03,-45.36"/>
</g>
<!-- mulle&#45;musl&#45;cc -->
<g id="node8" class="node">
<title>mulle&#45;musl&#45;cc</title>
<g id="a_node8"><a xlink:href="https://github.com/mulle-cc/mulle-musl-cc" xlink:title="mulle&#45;musl&#45;cc">
<polygon fill="lightgrey" stroke="black" points="1142,-36 1027,-36 1027,0 1142,0 1142,-36"/>
<text text-anchor="middle" x="1084.5" y="-14.3" font-family="Times,serif" font-size="14.00">mulle&#45;musl&#45;cc</text>
</a>
</g>
</g>
<!-- mulle&#45;scion&#45;&gt;mulle&#45;musl&#45;cc -->
<g id="edge8" class="edge">
<title>mulle&#45;scion&#45;&gt;mulle&#45;musl&#45;cc</title>
<path fill="none" stroke="black" d="M916.74,-73.12C947.93,-63.06 988.53,-49.96 1021.98,-39.17"/>
<polygon fill="black" stroke="black" points="1023.22,-42.45 1031.66,-36.04 1021.07,-35.78 1023.22,-42.45"/>
</g>
<!-- mulle&#45;musl -->
<g id="node9" class="node">
<title>mulle&#45;musl</title>
<g id="a_node9"><a xlink:href="https://github.com/mulle-cc/mulle-musl" xlink:title="mulle&#45;musl">
<polygon fill="lightgrey" stroke="black" points="1255,-36 1160,-36 1160,0 1255,0 1255,-36"/>
<text text-anchor="middle" x="1207.5" y="-14.3" font-family="Times,serif" font-size="14.00">mulle&#45;musl</text>
</a>
</g>
</g>
<!-- mulle&#45;scion&#45;&gt;mulle&#45;musl -->
<g id="edge7" class="edge">
<title>mulle&#45;scion&#45;&gt;mulle&#45;musl</title>
<path fill="none" stroke="black" d="M916.6,-81.53C971.44,-72.8 1062.97,-57.12 1150.16,-36.2"/>
<polygon fill="black" stroke="black" points="1151.05,-39.59 1159.94,-33.83 1149.4,-32.79 1151.05,-39.59"/>
</g>
<!-- MulleScion -->
<g id="node10" class="node">
<title>MulleScion</title>
<g id="a_node10"><a xlink:href="https://github.com/MulleWeb/MulleScion" xlink:title="MulleScion">
<polygon fill="lightgrey" stroke="black" points="1369.5,-36 1273.5,-36 1273.5,0 1369.5,0 1369.5,-36"/>
<text text-anchor="middle" x="1321.5" y="-14.3" font-family="Times,serif" font-size="14.00">MulleScion</text>
</a>
</g>
</g>
<!-- mulle&#45;scion&#45;&gt;MulleScion -->
<g id="edge9" class="edge">
<title>mulle&#45;scion&#45;&gt;MulleScion</title>
<path fill="none" stroke="black" d="M916.51,-84.96C989.98,-78.35 1133.09,-63.36 1263.29,-36.07"/>
<polygon fill="black" stroke="black" points="1264.38,-39.42 1273.44,-33.91 1262.93,-32.57 1264.38,-39.42"/>
</g>
<!-- MulleWebServer -->
<g id="node11" class="node">
<title>MulleWebServer</title>
<g id="a_node11"><a xlink:href="https://github.com/MulleWeb/MulleWebServer" xlink:title="MulleWebServer">
<polygon fill="lightgrey" stroke="black" points="1523.5,-36 1387.5,-36 1387.5,0 1523.5,0 1523.5,-36"/>
<text text-anchor="middle" x="1455.5" y="-14.3" font-family="Times,serif" font-size="14.00">MulleWebServer</text>
</a>
</g>
</g>
<!-- mulle&#45;scion&#45;&gt;MulleWebServer -->
<g id="edge10" class="edge">
<title>mulle&#45;scion&#45;&gt;MulleWebServer</title>
<path fill="none" stroke="black" d="M916.72,-85.77C1006.43,-79.47 1202.65,-63.83 1377.26,-36.1"/>
<polygon fill="black" stroke="black" points="1377.82,-39.56 1387.14,-34.52 1376.72,-32.64 1377.82,-39.56"/>
</g>
</g>
</svg>
